<?xml version="1.0" standalone="no"?>
<!DOCTYPE svg PUBLIC "-//W3C//DTD SVG 20010904//EN"
 "http://www.w3.org/TR/2001/REC-SVG-20010904/DTD/svg10.dtd">
<svg version="1.0" xmlns="http://www.w3.org/2000/svg"
 width="398.000000pt" height="127.000000pt" viewBox="0 0 398.000000 127.000000"
 preserveAspectRatio="xMidYMid meet">

<g transform="translate(0.000000,127.000000) scale(0.100000,-0.100000)"
fill="#000000" stroke="none">
<path d="M413 1038 c-50 -51 -96 -103 -102 -115 -18 -35 -13 -102 9 -139 31
-50 87 -71 250 -94 196 -27 226 -51 215 -164 l-6 -60 93 86 c51 47 97 97 103
112 9 25 -2 38 -210 246 -142 142 -227 220 -240 220 -12 0 -56 -36 -112 -92z"/>
<path d="M3111 868 c-27 -14 -233 -421 -229 -453 2 -13 14 -21 39 -27 57 -11
91 3 117 50 l23 42 94 0 c51 0 101 -3 110 -6 9 -4 25 -24 36 -45 15 -30 26
-39 47 -41 52 -2 87 4 101 18 13 12 1 41 -89 224 -58 116 -113 218 -122 227
-22 20 -96 26 -127 11z m94 -230 c13 -28 22 -55 19 -60 -3 -4 -30 -8 -60 -8
-41 0 -54 4 -54 15 0 25 43 105 57 105 8 0 25 -23 38 -52z"/>
<path d="M1200 855 c-60 -19 -110 -71 -116 -121 -10 -83 37 -120 199 -158 130
-30 155 -47 118 -77 -33 -27 -98 -24 -188 7 l-75 26 -27 -20 c-17 -13 -26 -29
-26 -48 0 -26 6 -31 60 -53 42 -17 88 -25 153 -29 174 -9 282 43 282 138 0 85
-38 114 -196 151 -117 27 -134 34 -134 59 0 41 94 49 179 14 47 -19 64 -18 89
9 51 54 18 87 -105 106 -93 14 -157 13 -213 -4z"/>
<path d="M1683 860 c-22 -9 -23 -13 -23 -150 0 -78 5 -162 11 -186 25 -99 123
-150 273 -142 103 5 166 33 204 91 27 40 27 43 27 211 l0 171 -37 9 c-23 6
-50 6 -70 0 l-33 -10 -5 -149 c-3 -83 -9 -157 -13 -166 -21 -41 -98 -61 -147
-36 -47 23 -60 68 -60 214 0 121 -2 133 -19 143 -24 12 -78 12 -108 0z"/>
<path d="M2297 857 c-16 -11 -17 -34 -15 -237 l3 -225 60 -3 c79 -4 85 4 85
129 0 54 4 100 9 104 12 7 41 -20 146 -138 l87 -98 62 3 61 3 3 231 2 232 -22
6 c-38 10 -83 7 -101 -6 -13 -10 -17 -34 -19 -113 -2 -80 -6 -100 -18 -103 -9
-1 -53 39 -105 98 -50 56 -102 108 -117 116 -33 17 -98 18 -121 1z"/>
<path d="M3397 854 c-12 -12 -8 -71 6 -82 7 -6 44 -12 82 -14 l70 -3 5 -180 5
-180 38 -6 c45 -7 83 -1 96 15 6 7 12 87 13 182 l3 169 80 5 80 5 0 45 0 45
-236 3 c-129 1 -238 -1 -242 -4z"/>
<path d="M167 689 c-66 -61 -97 -98 -97 -113 0 -15 66 -87 218 -238 180 -180
221 -216 239 -212 12 3 68 53 124 111 l101 104 -4 57 c-5 51 -9 60 -46 93 -49
43 -90 55 -235 69 -116 10 -153 24 -187 67 -19 24 -21 37 -17 91 2 34 4 62 3
62 -1 0 -45 -41 -99 -91z"/>
</g>
</svg>
